<?xml version="1.0" encoding="utf-8"?>
<!-- Generator: Adobe Illustrator 24.0.1, SVG Export Plug-In . SVG Version: 6.00 Build 0)  -->
<svg version="1.1"
	 id="svg2985" inkscape:version="0.48.2 r9819" sodipodi:docname="2014_Jeep_Warranty.pdf" xmlns:cc="http://creativecommons.org/ns#" xmlns:dc="http://purl.org/dc/elements/1.1/" xmlns:inkscape="http://www.inkscape.org/namespaces/inkscape" xmlns:rdf="http://www.w3.org/1999/02/22-rdf-syntax-ns#" xmlns:sodipodi="http://sodipodi.sourceforge.net/DTD/sodipodi-0.dtd" xmlns:svg="http://www.w3.org/2000/svg"
	 xmlns="http://www.w3.org/2000/svg" xmlns:xlink="http://www.w3.org/1999/xlink" x="0px" y="0px" viewBox="0 0 1000 403.21"
	 style="enable-background:new 0 0 1000 403.21;" xml:space="preserve">
<style type="text/css">
	.st0{fill:#EFEFEF;}
</style>
<sodipodi:namedview  bordercolor="#666666" borderopacity="1" fit-margin-bottom="0.5" fit-margin-left="0.5" fit-margin-right="0.5" fit-margin-top="0.5" gridtolerance="10" guidetolerance="10" id="namedview2987" inkscape:current-layer="g2993" inkscape:cx="407.31126" inkscape:cy="286.94632" inkscape:pageopacity="0" inkscape:pageshadow="2" inkscape:window-height="1020" inkscape:window-maximized="0" inkscape:window-width="1049" inkscape:window-x="858" inkscape:window-y="-3" inkscape:zoom="0.6836626" objecttolerance="10" pagecolor="#ffffff" showgrid="false">
	</sodipodi:namedview>
<g id="g2993" transform="matrix(1.25,0,0,-1.25,-1795.1326,711.62505)" inkscape:groupmode="layer" inkscape:label="2014_Jeep_Warranty">
	<g id="g3045" transform="matrix(5.4202527,0,0,5.4202527,2103.3002,397.09971)">
		<path id="path3047" inkscape:connector-curvature="0" class="st0" d="M0,0c-0.12-6.62,1.31-10.13,6.77-10.13
			c5.45,0,6.23,5.97,6.23,10.52c0,4.55-1.03,8.97-6.76,8.97C2.73,9.36,0.13,6.63,0,0z M-11.04-27.67v44.82H0.14c0,0,0-0.65,0-1.82
			c0-2.43,0.98-1.43,1.77-0.48c0.13,0.16,2.62,3.21,8.23,3.21c5.59,0,14.29-3.9,14.29-17.67c0-10.65-5.19-18.44-14.16-18.44
			c-4.94,0-7.8,1.94-8.45,2.73c-0.65,0.77-1.56,0.91-1.56,0c0-0.91,0-12.35,0-12.35H-11.04"/>
	</g>
	<g id="g3049" transform="matrix(5.4202527,0,0,5.4202527,1575.2049,568.90004)">
		<path id="path3051" inkscape:connector-curvature="0" class="st0" d="M0,0h12.08c0,0,0-26.24,0-31.7c0-5.45-2.34-16.89-19.1-16.89
			c-16.76,0-18.58,10.66-18.58,16.63v5.84h11.69c0,0,0-2.21,0-5.71c0-3.51,2.34-6.75,6.75-6.75c4.42,0,7.14,2.47,7.14,6.62
			C0-27.8,0,0,0,0"/>
	</g>
	<g id="g3053" transform="matrix(5.4202527,0,0,5.4202527,1777.646,423.16029)">
		<path id="path3055" inkscape:connector-curvature="0" class="st0" d="M0,0c0,3.25-1.82,6.37-5.97,6.37
			c-4.03,0-5.46-2.86-5.46-6.37H0z M-7.14,13.64c9.49,0,17.8-3.64,17.8-20.39h-22.47c0-5.33,2.21-7.53,6.1-7.53
			c3.9,0,5.2,3.12,5.2,3.12h11.05c0-4.81-6.63-11.3-16.63-11.17c-11.43,0-17.01,8.44-17.01,17.15
			C-23.11,3.51-18.18,13.64-7.14,13.64"/>
	</g>
	<g id="g3057" transform="matrix(5.4202527,0,0,5.4202527,1972.3577,423.16029)">
		<path id="path3059" inkscape:connector-curvature="0" class="st0" d="M0,0c0,3.25-1.82,6.37-5.97,6.37
			c-4.02,0-5.46-2.86-5.46-6.37H0z M-7.14,13.64c9.49,0,17.8-3.64,17.8-20.39h-22.47c0-5.33,2.21-7.53,6.11-7.53
			c3.89,0,5.19,3.12,5.19,3.12h11.05c0-4.81-6.63-11.3-16.63-11.17c-11.43,0-17.02,8.44-17.02,17.15
			C-23.11,3.51-18.18,13.64-7.14,13.64"/>
	</g>
	<g id="g3061" transform="matrix(5.4202527,0,0,5.4202527,2195.6071,276.25518)">
		<path id="path3063" inkscape:connector-curvature="0" class="st0" d="M0,0c0,1.77,1.45,3.22,3.23,3.22C5,3.22,6.44,1.77,6.44,0
			c0-1.77-1.44-3.22-3.22-3.22C1.44-3.22,0-1.77,0,0z M-0.37,0c0-1.99,1.61-3.6,3.6-3.6C5.2-3.6,6.82-1.99,6.82,0S5.2,3.6,3.23,3.6
			C1.24,3.6-0.37,1.99-0.37,0"/>
	</g>
	<g id="g3065" transform="matrix(5.4202527,0,0,5.4202527,2220.9034,266.28191)">
		<path id="path3067" inkscape:connector-curvature="0" class="st0" d="M0,0l-0.75,1.76C-0.51,1.85-0.43,1.9-0.3,2.04
			c0.16,0.18,0.27,0.45,0.27,0.71c0,0.64-0.49,1.07-1.2,1.07h-1.5V0h0.44v1.65h1.08L-0.49,0H0z M-2.3,2.04V3.4h1.06
			c0.44,0,0.72-0.25,0.72-0.64c0-0.44-0.3-0.72-0.79-0.72L-2.3,2.04"/>
	</g>
</g>
</svg>
