<?xml version="1.0" encoding="utf-8"?>
<!-- Generator: Adobe Illustrator 24.0.1, SVG Export Plug-In . SVG Version: 6.00 Build 0)  -->
<svg version="1.1" id="Layer_1" xmlns:serif="http://www.serif.com/"
	 xmlns="http://www.w3.org/2000/svg" xmlns:xlink="http://www.w3.org/1999/xlink" x="0px" y="0px" viewBox="0 0 1920 1080"
	 style="enable-background:new 0 0 1920 1080;" xml:space="preserve">
<style type="text/css">
	.st0{fill-rule:evenodd;clip-rule:evenodd;fill:#FFFFFF;}
</style>
<path class="st0" d="M957.9,1080l0.5,0h-0.2L957.9,1080L957.9,1080z M961.7,1080h-0.2l0.5,0L961.7,1080z M956.3,1080l0.5,0h-0.3
	L956.3,1080z M963.5,1080h-0.3l0.5,0L963.5,1080z M954.7,1080l0.3,0L954.7,1080L954.7,1080L954.7,1080z M965.2,1080l-0.3,0
	L965.2,1080L965.2,1080L965.2,1080z M967,1080l-0.1,0l0.5,0L967,1080L967,1080z M952.7,1080l0.5,0l-0.1,0L952.7,1080L952.7,1080z
	 M968.7,1079.9l-0.3,0l0.6,0L968.7,1079.9L968.7,1079.9z M951,1079.9l0.6,0l-0.3,0L951,1079.9L951,1079.9z M970.5,1079.9l-0.4,0
	l0.5,0L970.5,1079.9z M949.4,1079.9l0.5,0l-0.4,0L949.4,1079.9L949.4,1079.9z M947.4,1079.9l0.5,0l-0.1,0L947.4,1079.9L947.4,1079.9
	z M972.2,1079.9L972.2,1079.9l0.4,0L972.2,1079.9z M945.7,1079.8l0.7,0l-0.3,0L945.7,1079.8z M973.9,1079.8l-0.3,0l0.7,0
	L973.9,1079.8z M975.7,1079.8l-0.4,0l0.7,0L975.7,1079.8L975.7,1079.8z M944.1,1079.8l0.7,0l-0.4,0L944.1,1079.8L944.1,1079.8z
	 M942.6,1079.7l0.5,0L942.6,1079.7l-0.4,0L942.6,1079.7z M977.4,1079.7l-0.4,0L977.4,1079.7l0.4,0L977.4,1079.7z M979.1,1079.7
	l-0.2,0l0.7,0L979.1,1079.7z M940.4,1079.6l0.7,0l-0.2,0L940.4,1079.6z M938.8,1079.6l0.8,0l-0.4,0L938.8,1079.6z M980.9,1079.6
	l-0.4,0l0.8,0L980.9,1079.6z M937.2,1079.5l0.7,0l-0.6,0L937.2,1079.5L937.2,1079.5z M982.6,1079.5l-0.6,0l0.7,0L982.6,1079.5
	L982.6,1079.5z M935.1,1079.4l0.8,0l-0.2,0L935.1,1079.4z M984.3,1079.5l-0.2,0l0.8,0L984.3,1079.5L984.3,1079.5z M933.5,1079.4
	l0.8,0l-0.4,0L933.5,1079.4z M986,1079.4l-0.4,0l0.8,0L986,1079.4z M932,1079.3l0.8,0l-0.6,0L932,1079.3z M987.8,1079.3l-0.6,0
	l0.8,0L987.8,1079.3z M989.5,1079.2l-0.8,0L989.5,1079.2l0.7,0L989.5,1079.2L989.5,1079.2z M930.6,1079.2l0.7,0L930.6,1079.2l-0.8,0
	L930.6,1079.2L930.6,1079.2z M991.2,1079.1l-0.3,0l0.9,0L991.2,1079.1z M928.3,1079.1l0.9,0l-0.3,0L928.3,1079.1z M926.7,1079
	l0.9,0.1l-0.5,0L926.7,1079L926.7,1079z M992.9,1079l-0.5,0l0.9-0.1L992.9,1079L992.9,1079z M925.3,1078.9l0.8,0L925.3,1078.9
	l-0.7,0L925.3,1078.9L925.3,1078.9z M994.7,1078.9l-0.7,0L994.7,1078.9l0.7,0L994.7,1078.9L994.7,1078.9z M996.4,1078.8l-0.3,0
	l0.8-0.1L996.4,1078.8L996.4,1078.8z M923.1,1078.8l0.8,0.1l-0.3,0L923.1,1078.8z M921.5,1078.6l0.8,0.1l-0.4,0L921.5,1078.6
	L921.5,1078.6z M998.1,1078.7l-0.4,0l0.8-0.1L998.1,1078.7z M920,1078.5l0.7,0.1l-0.6,0L920,1078.5L920,1078.5z M999.8,1078.6
	l-0.6,0l0.7-0.1L999.8,1078.6L999.8,1078.6z M918,1078.4l0.6,0l-0.2,0L918,1078.4z M1001.5,1078.4l-0.2,0l0.6,0L1001.5,1078.4z
	 M1003.2,1078.3l-0.3,0l0.7-0.1L1003.2,1078.3z M916.4,1078.3l0.7,0.1l-0.3,0L916.4,1078.3L916.4,1078.3z M914.9,1078.1l0.6,0
	l-0.4,0L914.9,1078.1z M1004.9,1078.2l-0.4,0l0.6,0L1004.9,1078.2z M913.2,1078l0.2,0l0,0L913.2,1078L913.2,1078z M1006.7,1078
	L1006.7,1078l0.1,0L1006.7,1078L1006.7,1078z M1008.4,1077.9l-0.2,0l0.4,0L1008.4,1077.9L1008.4,1077.9z M911.4,1077.8l0.4,0l-0.2,0
	L911.4,1077.8L911.4,1077.8z M909.8,1077.7l0.3,0l-0.2,0L909.8,1077.7z M1010.1,1077.7l-0.2,0l0.3,0L1010.1,1077.7z M875.6,1073.4
	C617.6,1032.9,420,809.3,420,540C420,242,662,0,960,0s540,242,540,540c0,269.3-197.6,492.9-455.6,533.4V696.1h125.8l23.9-156.1
	h-149.8V438.7c0-42.7,20.9-84.3,88-84.3h68.1V221.5c0,0-61.8-10.5-120.9-10.5c-123.3,0-204,74.8-204,210.1v119H738.5v156.1h137.1
	V1073.4z"/>
</svg>
