<?xml version="1.0" encoding="utf-8"?>
<!-- Generator: Adobe Illustrator 24.0.1, SVG Export Plug-In . SVG Version: 6.00 Build 0)  -->
<svg version="1.1" id="Layer_1" xmlns:serif="http://www.serif.com/"
	 xmlns="http://www.w3.org/2000/svg" xmlns:xlink="http://www.w3.org/1999/xlink" x="0px" y="0px" viewBox="0 0 1920 1080"
	 style="enable-background:new 0 0 1920 1080;" xml:space="preserve">
<style type="text/css">
	.st0{fill-rule:evenodd;clip-rule:evenodd;fill:#FFFFFF;}
</style>
<path class="st0" d="M960,0c298,0,540,242,540,540s-242,540-540,540S420,838,420,540S662,0,960,0z M1283.4,377.5
	c-7.8-29-30.6-51.9-59.7-59.7c-52.6-14.1-263.7-14.1-263.7-14.1s-211.1,0-263.7,14.1c-29,7.8-51.9,30.6-59.7,59.7
	C622.5,430.2,622.5,540,622.5,540s0,109.8,14.1,162.5c7.8,29,30.6,51.9,59.7,59.7c52.6,14.1,263.7,14.1,263.7,14.1
	s211.1,0,263.7-14.1c29-7.8,51.9-30.6,59.7-59.7c14.1-52.6,14.1-162.5,14.1-162.5S1297.5,430.2,1283.4,377.5L1283.4,377.5z
	 M892.5,641.3V438.8L1067.9,540L892.5,641.3L892.5,641.3z"/>
</svg>
